<!DOCTYPE svg PUBLIC "-//W3C//DTD SVG 1.1//EN" "http://www.w3.org/Graphics/SVG/1.1/DTD/svg11.dtd">
<!-- Uploaded to: SVG Repo, www.svgrepo.com, Transformed by: SVG Repo Mixer Tools -->
<svg fill="#ffffff" version="1.1" id="Layer_1" xmlns="http://www.w3.org/2000/svg" xmlns:xlink="http://www.w3.org/1999/xlink" viewBox="0 0 512 512" xml:space="preserve" width="64px" height="64px" stroke="#ffffff">
<g id="SVGRepo_bgCarrier" stroke-width="0"/>
<g id="SVGRepo_tracerCarrier" stroke-linecap="round" stroke-linejoin="round"/>
<g id="SVGRepo_iconCarrier"> <g> <g> <rect x="229.333" y="229.333" width="53.333" height="53.333"/> </g> </g> <g> <g> <rect x="58.667" y="229.333" width="53.333" height="53.333"/> </g> </g> <g> <g> <rect x="400" y="229.333" width="53.333" height="53.333"/> </g> </g> <g> <g> <rect x="229.333" y="58.667" width="53.333" height="53.333"/> </g> </g> <g> <g> <polygon points="58.667,400 58.667,410.667 0,410.667 0,442.667 58.667,442.667 58.667,453.333 69.333,453.333 69.333,512 101.333,512 101.333,453.333 112,453.333 112,400 "/> </g> </g> <g> <g> <polygon points="453.333,410.667 453.333,400 400,400 400,453.333 410.667,453.333 410.667,512 442.667,512 442.667,453.333 453.333,453.333 453.333,442.667 512,442.667 512,410.667 "/> </g> </g> <g> <g> <rect x="229.333" y="400" width="53.333" height="53.333"/> </g> </g> <g> <g> <polygon points="101.333,58.667 101.333,0 69.333,0 69.333,58.667 58.667,58.667 58.667,69.333 0,69.333 0,101.333 58.667,101.333 58.667,112 112,112 112,58.667 "/> </g> </g> <g> <g> <rect x="69.333" y="128" width="32" height="85.333"/> </g> </g> <g> <g> <rect x="69.333" y="298.667" width="32" height="85.333"/> </g> </g> <g> <g> <rect x="410.667" y="128" width="32" height="85.333"/> </g> </g> <g> <g> <rect x="410.667" y="298.667" width="32" height="85.333"/> </g> </g> <g> <g> <polygon points="453.333,69.333 453.333,58.667 442.667,58.667 442.667,0 410.667,0 410.667,58.667 400,58.667 400,112 453.333,112 453.333,101.333 512,101.333 512,69.333 "/> </g> </g> <g> <g> <rect x="298.667" y="69.333" width="85.333" height="32"/> </g> </g> <g> <g> <rect x="128" y="69.333" width="85.333" height="32"/> </g> </g> <g> <g> <rect x="298.667" y="410.667" width="85.333" height="32"/> </g> </g> <g> <g> <rect x="128" y="410.667" width="85.333" height="32"/> </g> </g> </g>
</svg>